<svg xmlns="http://www.w3.org/2000/svg" viewBox="0 0 400 400" width="400" height="400" role="img" aria-label="sevn.bot avatar">
  <title>sevn.bot avatar</title>
  <rect width="400" height="400" rx="80" fill="#000000"></rect>
  <g transform="translate(8,8) scale(0.96000)">
  <path d="M219.600 74.478 C 217.070 76.676,213.740 79.495,212.200 80.744 C 201.496 89.419,194.469 95.663,188.215 102.056 C 180.420 110.023,161.269 129.537,153.268 137.665 L 148.282 142.730 148.241 206.689 L 148.200 270.648 144.800 274.443 C 142.930 276.530,140.142 279.669,138.605 281.419 C 137.068 283.168,134.626 285.860,133.179 287.400 C 131.732 288.940,128.413 292.630,125.803 295.600 C 123.193 298.570,119.765 302.440,118.186 304.200 C 116.607 305.960,113.640 309.290,111.593 311.600 C 109.546 313.910,106.574 317.240,104.990 319.000 C 86.430 339.613,83.085 343.600,84.354 343.600 C 85.125 343.600,91.627 339.979,94.431 337.989 C 98.969 334.768,98.493 335.224,126.861 306.902 L 153.521 280.285 154.497 281.242 C 155.034 281.769,156.987 283.626,158.837 285.370 C 160.686 287.113,163.825 290.083,165.811 291.970 C 169.641 295.607,179.658 304.990,183.993 309.000 C 185.419 310.320,186.863 311.670,187.201 312.000 C 187.539 312.330,189.162 313.850,190.808 315.379 C 192.454 316.907,195.240 319.520,197.000 321.185 C 198.760 322.850,202.810 326.632,206.000 329.589 C 209.190 332.546,213.514 336.594,215.608 338.583 C 219.269 342.060,223.963 346.432,234.889 356.541 C 239.716 361.007,240.055 361.243,241.489 361.125 L 243.000 361.000 243.108 332.000 C 243.173 314.490,243.066 302.683,242.839 302.200 C 242.339 301.136,239.156 292.662,237.655 288.400 C 236.997 286.530,235.982 283.650,235.401 282.000 C 234.819 280.350,234.190 278.640,234.004 278.200 C 233.548 277.126,231.867 272.407,230.799 269.200 C 230.322 267.770,229.157 264.530,228.210 262.000 C 227.262 259.470,226.352 257.040,226.187 256.600 C 226.022 256.160,224.948 253.100,223.799 249.800 C 220.865 241.368,218.432 234.722,217.983 233.905 C 216.745 231.658,217.595 231.605,225.600 233.428 C 227.910 233.954,230.790 234.587,232.000 234.835 C 233.210 235.083,234.722 235.447,235.360 235.643 C 235.998 235.839,236.951 236.000,237.480 236.000 C 238.967 236.000,240.518 236.951,247.190 241.956 C 250.594 244.510,255.030 247.770,257.048 249.200 C 259.065 250.630,262.432 253.015,264.530 254.500 C 269.188 257.797,268.619 257.841,278.600 253.426 C 279.480 253.037,280.560 252.577,281.000 252.403 C 292.546 247.852,291.438 248.699,294.744 241.900 C 296.269 238.765,300.325 230.469,303.758 223.465 C 310.981 208.728,310.537 210.436,307.937 207.400 C 306.806 206.080,300.072 198.160,292.973 189.800 C 285.874 181.440,277.508 171.630,274.383 168.000 C 271.258 164.370,266.124 158.319,262.974 154.553 C 254.503 144.427,254.959 144.828,240.767 135.000 C 236.638 132.140,231.358 128.450,229.035 126.800 L 224.812 123.800 224.806 97.324 C 224.803 82.762,224.665 70.765,224.500 70.664 C 224.335 70.564,222.130 72.280,219.600 74.478 " fill="#4bacfb"></path>
  <path d="M329.600 41.843 C 329.050 42.390,327.610 43.592,326.400 44.514 C 325.190 45.436,322.944 47.183,321.409 48.395 C 319.874 49.608,318.344 50.815,318.009 51.078 C 316.115 52.565,307.768 59.407,307.600 59.612 C 307.490 59.745,306.230 60.746,304.800 61.835 C 302.173 63.835,292.577 71.461,291.756 72.200 C 291.511 72.420,290.622 73.140,289.779 73.800 C 287.035 75.949,259.462 98.409,257.200 100.337 C 255.990 101.369,253.110 103.772,250.800 105.678 C 248.490 107.584,243.720 111.522,240.200 114.429 C 236.680 117.337,233.800 119.901,233.800 120.127 C 233.800 120.353,235.938 122.017,238.551 123.824 C 241.165 125.632,243.595 127.356,243.951 127.656 C 245.090 128.615,253.335 134.626,255.147 135.819 L 256.894 136.968 257.947 135.752 C 258.526 135.082,261.880 130.792,265.400 126.218 C 268.920 121.644,273.870 115.237,276.400 111.980 C 288.419 96.508,292.662 91.030,293.378 90.057 C 293.807 89.476,296.057 86.570,298.378 83.600 C 303.111 77.546,304.548 75.696,306.000 73.793 C 311.306 66.836,314.433 62.764,315.055 62.000 C 315.465 61.497,316.258 60.527,316.819 59.843 C 317.379 59.159,320.065 55.630,322.787 52.000 C 325.509 48.370,328.394 44.590,329.200 43.600 C 331.547 40.714,331.785 39.669,329.600 41.843 M177.800 101.020 C 177.580 101.106,175.690 101.368,173.600 101.601 C 171.510 101.834,168.270 102.204,166.400 102.424 C 164.530 102.644,161.470 102.977,159.600 103.165 C 148.961 104.232,141.762 105.357,140.600 106.136 C 138.406 107.606,122.307 119.106,114.800 124.566 C 110.730 127.527,106.013 130.905,104.318 132.074 C 102.623 133.244,101.144 134.425,101.031 134.700 C 100.868 135.096,105.301 135.200,122.420 135.200 L 144.015 135.200 146.339 132.900 C 149.804 129.470,167.359 112.566,170.767 109.376 C 178.406 102.228,180.223 100.070,177.800 101.020 M96.927 145.296 C 96.719 145.573,96.082 147.060,95.511 148.600 C 94.941 150.140,93.451 154.100,92.201 157.400 C 90.951 160.700,89.600 164.300,89.198 165.400 C 87.780 169.279,84.733 177.410,84.400 178.200 C 83.870 179.459,80.110 189.550,74.340 205.200 C 73.245 208.170,72.196 210.960,72.008 211.400 C 68.608 219.353,67.839 222.700,69.825 220.896 C 70.251 220.508,72.040 219.116,73.800 217.802 C 76.958 215.443,78.053 214.590,78.945 213.793 C 79.799 213.028,86.596 207.772,88.000 206.790 C 89.609 205.665,89.295 205.908,94.809 201.537 C 97.124 199.701,100.454 197.120,102.208 195.800 C 103.962 194.480,105.603 193.220,105.854 193.000 C 106.105 192.780,107.186 191.928,108.255 191.107 C 111.682 188.477,116.978 184.368,117.693 183.785 C 118.075 183.474,120.415 181.675,122.893 179.787 C 125.372 177.900,127.674 176.140,128.008 175.878 C 128.342 175.615,129.332 174.870,130.208 174.221 C 131.084 173.573,131.890 172.942,132.000 172.819 C 132.110 172.696,133.598 171.555,135.306 170.284 L 138.412 167.972 138.306 156.486 L 138.200 145.000 117.752 144.896 C 101.685 144.815,97.223 144.901,96.927 145.296 M134.800 182.067 C 133.150 183.373,130.165 185.675,128.168 187.182 C 126.170 188.689,124.280 190.165,123.967 190.461 C 123.655 190.757,122.499 191.714,121.399 192.586 C 120.300 193.459,119.310 194.270,119.200 194.389 C 119.090 194.507,118.280 195.134,117.400 195.781 C 116.520 196.428,115.710 197.061,115.600 197.186 C 115.421 197.391,111.134 200.918,109.596 202.126 C 105.414 205.411,97.354 211.835,97.200 212.006 C 97.090 212.127,96.100 212.941,95.000 213.814 C 93.900 214.686,92.910 215.496,92.800 215.614 C 92.629 215.796,90.878 217.211,87.867 219.600 C 87.451 219.930,86.906 220.382,86.655 220.604 C 86.405 220.827,85.120 221.907,83.800 223.004 C 82.480 224.102,81.310 225.094,81.200 225.209 C 81.090 225.324,79.921 226.314,78.603 227.409 C 75.654 229.858,76.026 229.537,71.669 233.400 L 68.060 236.600 68.040 259.800 L 68.020 283.000 74.631 276.200 C 78.266 272.460,84.157 266.419,87.720 262.776 C 99.997 250.225,110.221 239.701,118.072 231.534 C 122.401 227.030,128.259 221.018,131.089 218.173 C 133.919 215.328,136.710 212.415,137.291 211.700 L 138.348 210.400 138.386 195.231 C 138.406 186.888,138.283 179.978,138.112 179.876 C 137.940 179.775,136.450 180.760,134.800 182.067 M133.184 229.100 C 120.095 242.557,113.728 249.127,105.000 258.183 C 99.720 263.662,92.504 271.127,88.965 274.772 C 72.963 291.253,70.801 293.495,69.458 295.000 L 68.029 296.600 68.270 319.200 C 68.402 331.630,68.549 341.848,68.596 341.908 C 68.689 342.024,74.602 336.030,76.002 334.400 C 77.902 332.187,85.820 323.477,88.200 320.981 C 88.640 320.520,91.339 317.635,94.198 314.571 C 97.058 311.507,100.762 307.560,102.430 305.800 C 107.315 300.645,110.943 296.742,112.834 294.605 C 113.805 293.508,115.500 291.698,116.600 290.583 C 118.922 288.229,121.743 285.205,127.597 278.796 C 129.906 276.268,133.281 272.658,135.097 270.774 L 138.400 267.348 138.400 245.874 C 138.400 234.063,138.255 224.400,138.078 224.400 C 137.901 224.400,135.699 226.515,133.184 229.100 " fill="#fb3535"></path>
  <path d="M330.356 40.319 C 329.390 41.155,327.430 42.730,326.000 43.819 C 324.570 44.909,323.310 45.890,323.200 46.000 C 323.090 46.110,322.100 46.914,321.000 47.786 C 319.900 48.659,318.910 49.470,318.800 49.589 C 318.690 49.707,317.880 50.334,317.000 50.981 C 316.120 51.628,315.310 52.278,315.200 52.424 C 315.020 52.665,300.789 64.067,297.008 67.000 C 296.157 67.660,294.907 68.666,294.231 69.236 C 293.554 69.805,292.640 70.559,292.200 70.911 C 291.346 71.594,288.196 74.129,287.200 74.935 C 283.322 78.073,270.809 88.233,270.200 88.739 C 267.634 90.870,262.345 95.172,261.027 96.200 C 260.181 96.860,259.289 97.582,259.044 97.804 C 258.800 98.027,257.520 99.107,256.200 100.204 C 254.880 101.302,253.710 102.290,253.600 102.400 C 253.490 102.510,252.500 103.314,251.400 104.186 C 250.300 105.059,249.310 105.875,249.200 106.000 C 249.090 106.125,248.100 106.941,247.000 107.814 C 245.900 108.686,244.910 109.490,244.800 109.600 C 244.599 109.801,240.447 113.279,239.070 114.400 C 238.664 114.730,237.945 115.329,237.470 115.730 C 236.996 116.132,235.744 117.119,234.688 117.924 C 231.921 120.035,232.093 120.335,238.726 124.986 C 241.875 127.193,247.112 130.935,250.364 133.300 C 253.616 135.665,256.549 137.600,256.881 137.600 C 257.213 137.600,259.805 134.615,262.642 130.966 C 271.989 118.944,275.387 114.557,276.400 113.202 C 277.269 112.039,278.001 111.119,280.574 107.954 C 280.863 107.599,282.156 105.889,283.448 104.154 C 284.739 102.419,285.900 100.910,286.027 100.800 C 286.240 100.616,290.332 95.344,292.191 92.858 C 292.626 92.276,293.976 90.529,295.191 88.977 C 296.406 87.424,297.850 85.548,298.400 84.809 C 298.950 84.069,299.940 82.801,300.600 81.991 C 302.893 79.176,319.964 57.088,323.160 52.800 C 324.390 51.150,325.496 49.710,325.619 49.600 C 325.742 49.490,326.372 48.680,327.019 47.800 C 327.666 46.920,328.286 46.110,328.398 46.000 C 329.641 44.771,333.203 39.528,333.008 39.214 C 332.599 38.551,332.217 38.710,330.356 40.319 M332.168 39.948 C 332.287 40.140,332.072 40.660,331.692 41.104 C 331.311 41.548,328.840 44.750,326.200 48.220 C 322.066 53.653,311.891 66.813,290.507 94.386 C 283.606 103.285,276.893 111.953,270.207 120.600 C 259.860 133.980,258.073 136.241,257.414 136.788 C 256.674 137.403,255.201 136.475,245.400 129.217 C 242.540 127.099,238.630 124.294,236.710 122.983 C 234.791 121.673,233.216 120.398,233.210 120.151 C 233.202 119.773,240.511 113.474,245.011 109.982 C 245.732 109.422,247.195 108.226,248.261 107.324 C 251.424 104.647,259.484 98.004,264.165 94.215 C 266.566 92.272,268.906 90.363,269.365 89.974 C 271.697 87.998,283.617 78.323,291.400 72.087 C 296.240 68.210,300.290 64.927,300.400 64.791 C 300.510 64.656,301.819 63.618,303.309 62.484 C 304.799 61.351,309.749 57.398,314.309 53.700 C 318.869 50.003,323.770 46.084,325.200 44.991 C 326.630 43.899,328.674 42.239,329.743 41.302 C 331.870 39.439,331.858 39.446,332.168 39.948 M179.190 100.263 C 180.113 100.721,179.338 101.675,173.703 107.013 C 168.369 112.067,163.972 116.316,148.980 130.908 L 144.159 135.600 122.080 135.600 C 108.798 135.600,100.000 135.452,100.000 135.229 C 100.000 134.850,114.094 124.462,128.000 114.593 C 137.640 107.751,141.200 105.142,141.200 104.915 C 141.200 104.726,133.531 109.984,133.200 110.400 C 133.090 110.538,130.390 112.481,127.200 114.718 C 120.138 119.669,116.326 122.414,108.201 128.400 C 104.767 130.930,101.426 133.332,100.778 133.737 C 100.130 134.142,99.600 134.817,99.600 135.237 C 99.600 135.979,100.225 136.000,121.903 136.000 L 144.206 136.000 147.424 132.900 C 149.194 131.195,154.946 125.660,160.206 120.600 C 181.150 100.451,181.081 100.525,179.290 100.163 C 179.010 100.106,178.965 100.151,179.190 100.263 M172.800 100.817 C 172.185 101.025,172.954 101.066,174.800 100.925 C 176.450 100.799,177.875 100.629,177.967 100.548 C 178.299 100.253,173.774 100.489,172.800 100.817 M166.200 101.618 C 165.689 101.849,166.482 101.892,168.400 101.738 C 170.050 101.605,171.475 101.429,171.567 101.348 C 171.927 101.028,166.951 101.278,166.200 101.618 M158.800 102.405 C 158.226 102.592,159.332 102.636,161.400 102.510 C 163.380 102.388,165.075 102.224,165.167 102.144 C 165.501 101.855,159.771 102.089,158.800 102.405 M150.400 103.433 L 147.400 103.962 150.200 103.735 C 151.740 103.610,154.080 103.374,155.400 103.209 L 157.800 102.909 155.600 102.907 C 154.390 102.905,152.050 103.142,150.400 103.433 M142.600 104.400 L 141.400 104.705 142.800 104.730 C 143.570 104.743,144.920 104.605,145.800 104.423 L 147.400 104.092 145.600 104.093 C 144.610 104.094,143.260 104.232,142.600 104.400 M98.808 143.928 C 96.097 144.120,96.701 143.032,91.331 157.400 C 90.344 160.040,89.389 162.560,89.209 163.000 C 89.028 163.440,88.664 164.430,88.400 165.200 C 88.136 165.970,87.779 166.960,87.608 167.400 C 87.436 167.840,87.022 168.920,86.688 169.800 C 86.354 170.680,85.703 172.369,85.240 173.553 C 84.310 175.936,84.109 177.342,84.986 175.324 C 85.292 174.622,86.736 170.842,88.196 166.924 C 89.655 163.006,91.669 157.640,92.670 155.000 C 93.671 152.360,94.950 148.981,95.512 147.491 C 96.803 144.067,94.580 144.359,118.400 144.489 L 138.600 144.600 138.706 156.275 L 138.812 167.950 137.106 169.351 C 136.168 170.121,129.460 175.313,122.200 180.888 C 114.940 186.464,105.940 193.404,102.200 196.311 C 98.460 199.219,91.980 204.194,87.800 207.368 C 83.620 210.541,79.480 213.798,78.600 214.604 C 76.321 216.692,77.756 215.664,85.023 210.000 C 86.576 208.790,88.376 207.405,89.023 206.923 C 90.192 206.052,96.402 201.282,101.000 197.724 C 102.320 196.702,105.290 194.422,107.600 192.657 C 109.910 190.892,111.890 189.346,112.000 189.221 C 112.110 189.097,112.920 188.466,113.800 187.819 C 114.680 187.172,115.490 186.542,115.600 186.419 C 115.710 186.296,117.150 185.175,118.800 183.928 C 120.450 182.681,123.240 180.549,125.000 179.190 C 126.760 177.831,130.180 175.228,132.600 173.405 C 135.020 171.583,137.495 169.629,138.100 169.065 L 139.200 168.038 139.200 156.243 C 139.200 147.246,139.081 144.370,138.700 144.124 C 138.233 143.822,102.749 143.647,98.808 143.928 M82.972 179.443 C 82.489 180.922,81.873 182.617,81.387 183.800 C 81.116 184.460,80.675 185.630,80.407 186.400 C 80.139 187.170,79.772 188.160,79.592 188.600 C 79.412 189.040,78.785 190.750,78.200 192.400 C 77.615 194.050,76.988 195.760,76.807 196.200 C 75.533 199.299,74.723 201.656,74.880 201.813 C 74.981 201.914,75.623 200.513,76.307 198.698 C 81.141 185.878,83.589 179.056,83.418 178.885 C 83.308 178.775,83.108 179.026,82.972 179.443 M136.800 179.425 C 136.470 179.731,133.860 181.797,131.000 184.016 C 128.140 186.234,125.530 188.264,125.200 188.526 C 122.694 190.513,120.568 192.234,120.400 192.410 C 120.290 192.526,116.150 195.854,111.200 199.806 C 106.250 203.758,102.110 207.083,102.000 207.196 C 101.890 207.308,100.900 208.114,99.800 208.986 C 98.700 209.859,97.710 210.679,97.600 210.810 C 97.490 210.940,97.025 211.306,96.567 211.623 C 96.108 211.940,94.938 212.868,93.967 213.684 C 92.995 214.500,90.040 216.923,87.400 219.068 C 84.760 221.214,82.510 223.066,82.400 223.184 C 82.290 223.303,81.120 224.295,79.800 225.390 C 78.480 226.484,77.130 227.656,76.800 227.994 C 76.470 228.332,75.570 229.080,74.800 229.656 C 74.030 230.232,71.885 232.147,70.034 233.911 L 66.669 237.118 66.934 253.059 C 67.080 261.827,67.199 272.201,67.199 276.113 C 67.200 284.896,67.291 285.008,71.148 280.964 C 72.598 279.444,79.908 271.905,87.392 264.211 C 94.876 256.518,104.060 247.072,107.800 243.221 C 122.679 227.900,128.038 222.399,133.500 216.838 L 139.200 211.035 139.200 194.918 L 139.200 178.800 138.300 178.834 C 137.805 178.852,137.130 179.118,136.800 179.425 M138.713 195.185 L 138.600 211.171 131.800 218.087 C 128.060 221.891,121.670 228.426,117.600 232.610 C 113.530 236.794,107.137 243.364,103.394 247.209 C 91.263 259.672,69.819 281.719,69.085 282.484 C 67.657 283.974,67.600 283.099,67.600 259.664 L 67.600 236.575 70.450 233.988 C 72.018 232.564,74.165 230.680,75.221 229.800 C 76.278 228.920,79.721 226.032,82.871 223.382 C 89.520 217.791,93.812 214.286,105.421 204.963 C 131.618 183.924,137.602 179.241,138.313 179.217 C 138.724 179.203,138.804 182.380,138.713 195.185 M73.254 205.587 C 73.004 206.254,72.602 207.385,72.360 208.100 C 72.117 208.815,71.772 209.760,71.591 210.200 C 70.483 212.903,67.596 220.778,67.376 221.700 C 66.917 223.620,69.904 222.288,73.429 219.000 C 73.665 218.780,74.519 218.150,75.326 217.600 C 76.134 217.050,76.796 216.453,76.797 216.273 C 76.800 215.922,76.308 216.265,71.465 219.991 C 69.740 221.318,68.177 222.309,67.990 222.194 C 67.625 221.968,69.246 217.281,73.283 206.886 C 73.735 205.723,74.015 204.682,73.906 204.573 C 73.797 204.464,73.503 204.920,73.254 205.587 M133.778 227.309 C 121.046 240.461,116.570 245.103,112.836 249.026 C 110.546 251.432,103.436 258.798,97.036 265.396 C 90.636 271.993,83.315 279.553,80.768 282.196 C 78.220 284.838,74.219 288.980,71.876 291.400 L 67.617 295.800 67.709 319.367 C 67.774 336.164,67.927 342.976,68.243 343.081 C 68.725 343.242,73.502 338.465,77.400 333.925 C 79.317 331.692,85.077 325.407,89.216 321.033 C 91.315 318.815,94.195 315.746,95.616 314.214 C 97.037 312.682,99.829 309.712,101.821 307.614 C 103.812 305.516,106.602 302.543,108.021 301.007 C 109.439 299.470,110.870 297.940,111.200 297.607 C 111.530 297.273,112.595 296.100,113.567 295.000 C 114.538 293.900,117.238 291.019,119.567 288.599 C 121.895 286.178,124.586 283.298,125.546 282.199 C 126.506 281.099,129.341 278.018,131.846 275.351 C 134.350 272.683,137.030 269.813,137.800 268.972 L 139.200 267.444 139.200 245.322 C 139.200 219.345,139.743 221.148,133.778 227.309 M138.692 245.633 L 138.783 267.400 136.143 270.200 C 130.441 276.248,128.845 277.965,124.807 282.400 C 122.504 284.930,118.984 288.710,116.985 290.800 C 114.986 292.890,112.195 295.860,110.782 297.400 C 107.965 300.470,103.845 304.880,99.188 309.811 C 93.642 315.682,80.554 329.773,78.392 332.200 C 74.732 336.309,68.525 342.800,68.256 342.800 C 68.115 342.800,68.000 332.244,68.000 319.342 L 68.000 295.884 71.926 291.842 C 74.086 289.619,78.361 285.198,81.426 282.018 C 90.151 272.967,97.940 264.926,112.635 249.800 C 120.115 242.100,127.847 234.098,129.818 232.017 C 136.237 225.239,137.794 223.711,138.200 223.790 C 138.459 223.839,138.632 231.513,138.692 245.633 " fill="#fb3535"></path>
  <path d="M329.517 41.500 C 328.302 42.545,325.585 44.719,323.478 46.331 C 321.371 47.942,319.412 49.562,319.124 49.931 C 318.836 50.299,319.410 49.955,320.400 49.167 C 321.390 48.379,323.540 46.710,325.178 45.460 C 326.817 44.209,328.765 42.632,329.508 41.956 C 331.490 40.153,331.480 40.780,329.487 43.247 C 328.531 44.431,325.518 48.370,322.793 52.000 C 320.067 55.630,317.379 59.159,316.819 59.843 C 316.258 60.527,315.465 61.497,315.055 62.000 C 314.433 62.764,311.306 66.836,306.000 73.793 C 304.548 75.696,303.111 77.546,298.378 83.600 C 296.057 86.570,293.807 89.476,293.378 90.057 C 292.662 91.030,288.419 96.508,276.400 111.980 C 273.870 115.237,268.920 121.644,265.400 126.218 C 261.880 130.792,258.526 135.082,257.947 135.752 L 256.894 136.968 255.147 135.819 C 253.335 134.626,245.090 128.615,243.951 127.656 C 243.595 127.356,241.165 125.632,238.551 123.824 C 235.938 122.017,233.800 120.353,233.800 120.127 C 233.800 119.750,236.201 117.711,251.490 105.099 C 254.358 102.733,256.951 100.483,257.252 100.099 C 257.553 99.714,256.720 100.293,255.400 101.385 C 254.080 102.477,252.010 104.187,250.800 105.185 C 249.590 106.183,248.510 107.102,248.400 107.227 C 248.290 107.352,247.300 108.164,246.200 109.032 C 240.355 113.644,233.201 119.771,233.210 120.158 C 233.216 120.401,234.791 121.673,236.710 122.983 C 238.630 124.294,242.540 127.099,245.400 129.217 C 255.201 136.475,256.674 137.403,257.414 136.788 C 258.073 136.241,259.860 133.980,270.207 120.600 C 276.893 111.953,283.606 103.285,290.507 94.386 C 311.891 66.813,322.066 53.653,326.200 48.220 C 328.840 44.750,331.311 41.548,331.692 41.104 C 332.258 40.444,332.340 39.600,331.839 39.600 C 331.776 39.600,330.731 40.455,329.517 41.500 M311.600 55.850 C 309.070 57.943,305.560 60.755,303.800 62.098 C 302.040 63.442,300.510 64.654,300.400 64.791 C 300.290 64.929,298.445 66.431,296.300 68.129 C 294.155 69.826,292.400 71.329,292.400 71.469 C 292.400 71.609,292.715 71.456,293.100 71.128 C 294.647 69.812,302.106 63.883,304.669 61.933 C 306.171 60.790,307.490 59.745,307.600 59.611 C 307.710 59.477,309.735 57.785,312.100 55.852 C 315.781 52.842,316.799 51.914,316.300 52.022 C 316.245 52.033,314.130 53.756,311.600 55.850 M286.765 75.758 C 283.393 78.471,270.713 88.835,269.293 90.038 C 268.794 90.461,266.142 92.618,263.399 94.833 C 260.656 97.047,258.283 99.066,258.126 99.320 C 257.969 99.574,259.181 98.690,260.820 97.355 C 262.459 96.021,269.357 90.394,276.150 84.852 C 282.942 79.310,288.871 74.515,289.326 74.197 C 289.780 73.879,290.073 73.550,289.976 73.467 C 289.879 73.384,288.434 74.415,286.765 75.758 M174.800 100.941 C 172.930 101.177,171.903 101.435,172.519 101.514 C 173.134 101.592,174.835 101.470,176.299 101.242 C 177.763 101.014,179.014 100.881,179.079 100.946 C 179.229 101.096,174.619 105.772,170.767 109.376 C 167.359 112.566,149.804 129.470,146.339 132.900 L 144.015 135.200 122.420 135.200 C 102.020 135.200,100.840 135.161,101.087 134.500 C 101.317 133.887,101.266 133.868,100.675 134.349 C 100.304 134.651,100.000 135.056,100.000 135.249 C 100.000 135.446,109.680 135.600,122.080 135.600 L 144.159 135.600 148.980 130.908 C 163.972 116.316,168.369 112.067,173.703 107.013 C 176.946 103.941,179.600 101.196,179.600 100.913 C 179.600 100.340,179.553 100.341,174.800 100.941 M166.600 102.000 L 165.000 102.286 167.000 102.303 C 168.100 102.313,169.450 102.176,170.000 102.000 C 171.331 101.574,168.981 101.574,166.600 102.000 M159.000 102.800 L 157.400 103.086 159.400 103.120 C 160.500 103.139,162.120 103.005,163.000 102.823 L 164.600 102.492 162.600 102.503 C 161.500 102.509,159.880 102.642,159.000 102.800 M150.200 103.826 C 148.220 104.107,145.430 104.470,144.000 104.633 C 141.865 104.875,141.025 105.205,139.300 106.476 C 136.490 108.549,136.622 108.818,139.500 106.883 C 141.769 105.357,141.899 105.325,149.200 104.427 C 153.270 103.926,156.675 103.445,156.767 103.358 C 157.064 103.076,153.885 103.302,150.200 103.826 M129.800 113.272 C 117.994 121.700,101.600 133.670,101.600 133.863 C 101.600 134.083,104.823 131.811,114.800 124.559 C 118.870 121.600,125.485 116.834,129.500 113.967 C 135.777 109.486,137.232 108.362,136.700 108.409 C 136.645 108.414,133.540 110.602,129.800 113.272 M96.938 144.704 C 96.392 145.054,94.212 150.346,94.497 150.630 C 94.605 150.738,95.106 149.695,95.612 148.313 C 96.117 146.931,96.704 145.573,96.917 145.296 C 97.221 144.901,101.689 144.815,117.752 144.896 L 138.200 145.000 138.306 156.486 L 138.412 167.972 135.306 170.284 C 133.598 171.555,132.110 172.696,132.000 172.819 C 131.890 172.942,131.084 173.573,130.208 174.221 C 129.332 174.870,128.342 175.615,128.008 175.878 C 127.674 176.140,125.372 177.900,122.893 179.787 C 120.415 181.675,118.075 183.474,117.693 183.785 C 116.978 184.368,111.682 188.477,108.255 191.107 C 107.186 191.928,106.105 192.780,105.854 193.000 C 105.603 193.220,103.962 194.480,102.208 195.800 C 100.454 197.120,97.195 199.662,94.966 201.449 C 92.737 203.235,90.574 204.887,90.160 205.119 C 89.746 205.350,89.499 205.633,89.613 205.746 C 89.726 205.860,91.435 204.684,93.410 203.133 C 98.690 198.987,106.939 192.614,122.000 181.045 C 129.370 175.383,136.168 170.121,137.106 169.351 L 138.812 167.950 138.706 156.275 L 138.600 144.600 118.000 144.504 C 106.670 144.451,97.192 144.541,96.938 144.704 M92.053 156.653 C 90.903 159.646,90.030 162.163,90.113 162.246 C 90.196 162.330,91.211 159.955,92.368 156.968 C 93.526 153.982,94.398 151.465,94.308 151.375 C 94.217 151.284,93.203 153.659,92.053 156.653 M89.046 164.646 C 88.210 167.101,88.475 167.366,89.385 164.985 C 89.770 163.976,89.996 163.063,89.887 162.954 C 89.779 162.845,89.400 163.607,89.046 164.646 M87.688 168.280 C 87.466 168.896,85.729 173.518,83.828 178.552 C 81.926 183.586,80.439 187.773,80.523 187.856 C 80.606 187.940,81.435 185.981,82.364 183.504 C 83.294 181.027,84.208 178.640,84.395 178.200 C 85.766 174.987,88.449 167.516,88.289 167.356 C 88.181 167.248,87.911 167.663,87.688 168.280 M133.200 182.815 C 128.761 186.269,122.996 190.864,105.724 204.714 C 101.256 208.297,97.600 211.334,97.600 211.463 C 97.600 211.591,98.365 211.078,99.300 210.322 C 100.976 208.968,108.408 203.049,109.592 202.126 C 110.988 201.037,115.415 197.397,115.600 197.186 C 115.710 197.061,116.520 196.428,117.400 195.781 C 118.280 195.134,119.090 194.507,119.200 194.389 C 119.310 194.270,120.300 193.459,121.399 192.586 C 122.499 191.714,123.655 190.757,123.967 190.461 C 124.280 190.165,126.170 188.689,128.168 187.181 C 130.165 185.674,133.173 183.359,134.851 182.038 C 136.529 180.716,138.019 179.753,138.162 179.896 C 138.306 180.039,138.406 186.961,138.385 195.278 L 138.348 210.400 137.291 211.700 C 136.710 212.415,133.919 215.328,131.089 218.173 C 128.259 221.018,122.401 227.030,118.072 231.534 C 110.221 239.701,99.997 250.225,87.720 262.776 C 84.157 266.419,78.266 272.460,74.631 276.200 L 68.020 283.000 68.010 259.928 L 68.000 236.857 70.300 234.669 C 71.565 233.466,73.356 231.879,74.279 231.141 C 75.203 230.403,75.968 229.649,75.979 229.464 C 76.003 229.077,74.625 230.206,70.524 233.935 L 67.600 236.594 67.600 259.673 C 67.600 283.099,67.657 283.974,69.085 282.484 C 69.819 281.719,91.263 259.672,103.394 247.209 C 107.137 243.364,113.530 236.794,117.600 232.610 C 121.670 228.426,128.060 221.891,131.800 218.087 L 138.600 211.171 138.713 195.185 C 138.804 182.380,138.724 179.203,138.313 179.217 C 138.031 179.227,135.730 180.845,133.200 182.815 M79.233 190.834 C 78.221 193.648,74.422 203.762,73.118 207.114 C 72.666 208.277,72.385 209.319,72.495 209.428 C 72.605 209.538,73.336 207.867,74.120 205.714 C 74.904 203.561,76.639 198.925,77.976 195.411 C 79.313 191.897,80.351 188.852,80.282 188.645 C 80.212 188.437,79.740 189.422,79.233 190.834 M85.800 208.443 C 84.040 209.785,81.842 211.449,80.916 212.141 C 79.989 212.834,79.224 213.543,79.216 213.717 C 79.207 213.891,80.415 213.079,81.900 211.912 C 83.385 210.744,85.635 209.005,86.900 208.046 C 88.910 206.522,89.478 205.995,89.100 206.002 C 89.045 206.003,87.560 207.102,85.800 208.443 M94.994 213.474 L 93.000 215.292 95.000 213.772 C 96.100 212.935,97.075 212.195,97.167 212.126 C 97.258 212.057,97.256 211.922,97.161 211.828 C 97.066 211.733,96.091 212.473,94.994 213.474 M70.033 215.433 C 69.317 217.320,68.805 218.939,68.897 219.030 C 68.989 219.122,69.650 217.653,70.367 215.767 C 71.083 213.880,71.595 212.261,71.503 212.170 C 71.411 212.078,70.750 213.547,70.033 215.433 M76.996 215.443 C 75.759 216.562,75.678 216.701,76.636 216.062 C 77.772 215.303,79.105 214.000,78.745 214.000 C 78.660 214.000,77.873 214.649,76.996 215.443 M90.800 216.756 C 82.752 223.390,77.248 228.067,76.769 228.675 C 76.323 229.243,80.366 226.081,81.200 225.209 C 81.414 224.985,85.696 221.399,86.941 220.400 C 87.353 220.070,87.894 219.620,88.145 219.400 C 88.508 219.082,92.047 216.268,92.767 215.726 C 92.858 215.657,92.858 215.526,92.767 215.436 C 92.675 215.345,91.790 215.939,90.800 216.756 M73.361 218.104 C 69.859 220.874,69.085 221.407,68.261 221.617 C 67.721 221.755,67.576 221.938,67.866 222.117 C 68.271 222.367,74.457 218.079,75.031 217.150 C 75.391 216.568,75.075 216.748,73.361 218.104 M135.600 225.974 C 134.390 227.217,131.788 229.937,129.818 232.017 C 127.847 234.098,120.115 242.100,112.635 249.800 C 77.784 285.674,68.655 295.167,68.267 295.939 C 68.084 296.302,68.599 295.880,69.410 295.000 C 70.803 293.490,73.478 290.723,88.965 274.772 C 92.504 271.127,99.720 263.662,105.000 258.183 C 113.728 249.127,120.095 242.557,133.184 229.100 C 135.699 226.515,137.901 224.400,138.078 224.400 C 138.255 224.400,138.400 234.063,138.400 245.874 L 138.400 267.348 135.097 270.774 C 133.281 272.658,129.906 276.268,127.597 278.796 C 121.743 285.205,118.922 288.229,116.600 290.583 C 115.500 291.698,113.805 293.508,112.834 294.605 C 110.943 296.742,107.315 300.645,102.430 305.800 C 100.762 307.560,97.058 311.507,94.198 314.571 C 91.339 317.635,88.640 320.520,88.200 320.981 C 85.820 323.477,77.902 332.187,76.002 334.400 C 75.529 334.950,73.671 336.907,71.871 338.750 L 68.600 342.099 68.393 327.150 L 68.185 312.200 68.093 327.500 C 68.042 335.915,68.115 342.800,68.256 342.800 C 68.525 342.800,74.732 336.309,78.392 332.200 C 80.554 329.773,93.642 315.682,99.188 309.811 C 103.845 304.880,107.965 300.470,110.782 297.400 C 112.195 295.860,114.986 292.890,116.985 290.800 C 118.984 288.710,122.504 284.930,124.807 282.400 C 128.845 277.965,130.441 276.248,136.143 270.200 L 138.783 267.400 138.692 245.633 C 138.632 231.513,138.459 223.839,138.200 223.790 C 137.980 223.747,136.810 224.730,135.600 225.974 " fill="#fb3535"></path>
  <path d="M213.232 163.500 C 217.500 174.885,220.579 177.556,228.837 177.033 C 232.809 176.782,233.380 176.841,236.223 177.795 C 240.102 179.097,240.071 179.158,237.789 174.717 C 234.176 167.688,232.838 166.400,229.146 166.400 C 225.483 166.400,220.571 165.187,215.513 163.033 C 213.245 162.068,212.734 162.172,213.232 163.500 " fill="#ffffff"></path>
  </g>
</svg>
